<?xml version="1.0" encoding="utf-8"?>
<!-- Generator: Adobe Illustrator 16.0.4, SVG Export Plug-In . SVG Version: 6.00 Build 0)  -->
<!DOCTYPE svg PUBLIC "-//W3C//DTD SVG 1.1//EN" "http://www.w3.org/Graphics/SVG/1.1/DTD/svg11.dtd">
<svg version="1.1" id="Layer_1" xmlns="http://www.w3.org/2000/svg" xmlns:xlink="http://www.w3.org/1999/xlink" x="0px" y="0px"
	 width="792px" height="612px" viewBox="0 0 792 612" enable-background="new 0 0 792 612" xml:space="preserve">
<path fill="#FFFFFF" d="M48.236,292.721H63.44v-4.389c0-2.979-0.052-7.158-0.209-9.353h7.994c-0.104,2.3-0.261,6.479-0.261,9.353
	v18.913c0,2.718,0.156,6.062,0.261,7.523h-7.994c0.104-1.462,0.209-4.806,0.209-7.576v-8.254H48.236v8.307
	c0,2.718,0.053,6.062,0.158,7.523h-7.89c0.105-1.462,0.21-4.806,0.21-7.576v-18.86c0-3.71-0.104-7.942-0.21-9.353h7.89
	c-0.104,1.411-0.158,5.643-0.158,9.353V292.721z"/>
<path fill="#FFFFFF" d="M102.324,314.769c-0.418-1.203-1.097-2.874-1.776-4.44l-1.621-3.868H86.493l-1.62,3.711
	c-0.784,1.829-1.306,3.188-1.776,4.598h-7.995c1.307-2.3,2.718-4.912,4.023-7.942l12.958-28.475h2.09l13.323,28.475
	c1.41,2.979,2.977,5.8,4.232,7.942H102.324z M92.711,291.415l-3.709,8.934h7.418L92.711,291.415z"/>
<path fill="#FFFFFF" d="M123.584,305.416c0,3.554,0.104,7.733,0.208,9.353h-7.941c0.104-1.619,0.209-5.799,0.209-9.353v-17.084
	c0-3.554-0.104-7.785-0.209-9.353h7.941c-0.104,1.568-0.208,5.799-0.208,9.353V305.416z"/>
<path fill="#FFFFFF" d="M139.046,305.521c0,3.553,0.053,7.629,0.21,9.248h-7.995c0.158-1.619,0.262-5.695,0.262-9.248v-17.188
	c0-3.554-0.104-7.785-0.262-9.353h10.712c8.567,0,13.271,4.703,13.271,11.181c0,5.643-3.292,8.518-7.053,9.718
	c4.074,4.599,7.993,10.763,12.486,14.891h-9.874c-2.3-2.821-6.845-9.248-9.04-13.689c-0.366,0.052-0.679,0.052-0.992,0.052h-1.726
	V305.521z M139.046,295.75h2.875c3.395,0,5.747-2.247,5.747-5.38c0-2.821-2.038-5.434-6.061-5.434h-2.561V295.75z"/>
<path fill="#EF68A5" d="M171.542,282.479v11.391h4.125c3.553,0,6.531-0.054,8.151-0.158v3.867c-1.62-0.105-4.598-0.156-8.151-0.156
	h-4.125v13.792h4.597c3.605,0,7.26-0.052,8.83-0.156v3.865c-1.569-0.104-5.225-0.155-8.83-0.155H167.1
	c0.104-2.874,0.209-7.002,0.209-9.353v-17.137c0-3.605-0.105-7.732-0.209-9.3h8.62c3.605,0,7.21-0.104,8.83-0.208v3.919
	c-1.62-0.157-5.225-0.21-8.83-0.21H171.542z"/>
<path fill="#EF68A5" d="M208.27,300.244l-5.33,9.038c-1.463,2.561-2.248,3.971-2.979,5.486h-5.171
	c1.566-2.09,3.29-4.649,5.119-7.576l6.271-10.345l-6.114-10.031c-1.777-2.976-3.656-5.851-5.172-7.837h5.485
	c0.837,1.672,1.83,3.5,3.344,5.957l4.809,8.15l4.806-8.202c1.358-2.352,2.402-4.336,3.291-5.905h5.122
	c-1.567,2.038-3.448,4.965-5.122,7.681l-6.007,9.822l6.164,10.188c1.881,3.03,3.867,6.009,5.434,8.099h-5.487
	c-0.834-1.462-1.984-3.605-3.551-6.165L208.27,300.244z"/>
<path fill="#EF68A5" d="M251.264,278.979c3.605,0,7.419-0.052,9.039-0.156v3.867c-1.62-0.104-5.434-0.21-9.039-0.21h-3.658
	c-0.051,1.933-0.051,4.599-0.051,6.741v16.196c0,3.554,0.051,7.733,0.208,9.353h-4.649c0.104-1.619,0.156-5.799,0.156-9.353V289.22
	c0-2.142-0.051-4.808-0.156-6.741h-3.604c-3.555,0-7.315,0.105-8.936,0.21v-3.867c1.62,0.104,5.381,0.156,8.936,0.156H251.264z"/>
<path fill="#EF68A5" d="M275.763,282.479v11.391h4.127c3.554,0,6.532-0.054,8.151-0.158v3.867c-1.619-0.105-4.597-0.156-8.151-0.156
	h-4.127v13.792h4.598c3.607,0,7.263-0.052,8.829-0.156v3.865c-1.566-0.104-5.222-0.155-8.829-0.155h-9.037
	c0.102-2.874,0.207-7.002,0.207-9.353v-17.137c0-3.605-0.104-7.732-0.207-9.3h8.618c3.607,0,7.211-0.104,8.831-0.208v3.919
	c-1.62-0.157-5.224-0.21-8.831-0.21H275.763z"/>
<path fill="#EF68A5" d="M305.974,314.769h-4.442c0.104-1.462,0.209-4.806,0.209-7.576v-18.913c0-3.135-0.104-7.263-0.209-10.083
	h0.993c1.568,1.932,2.505,2.978,4.284,4.962l19.332,22.989v-17.815c0-2.979-0.104-7.158-0.16-9.353h4.391
	c-0.104,2.3-0.156,6.479-0.156,9.353v19.487c0,2.195,0,4.545,0.156,7.577h-0.942c-1.306-1.673-2.193-2.718-3.863-4.651
	l-19.698-23.406l-0.106,19.906C305.763,309.963,305.869,313.307,305.974,314.769z"/>
<path fill="#EF68A5" d="M362.342,305.364c0,6.009-4.384,10.188-10.812,10.188c-3.398,0-5.434-0.887-8.151-1.307v-5.954
	c1.307,2.191,4.704,3.865,8.256,3.865c3.867,0,6.164-2.612,6.164-6.271c0-7.732-13.322-7.68-13.322-18.024
	c0-6.113,4.337-9.614,10.343-9.614c2.719,0,4.391,0.731,6.585,0.993v5.643c-0.94-2.299-3.551-3.344-6.585-3.344
	c-3.5,0-6.006,2.09-6.006,5.799C348.813,294.863,362.342,295.02,362.342,305.364z"/>
<path fill="#EF68A5" d="M379.877,305.416c0,3.554,0.104,7.733,0.209,9.353h-4.649c0.104-1.619,0.209-5.799,0.209-9.353v-17.084
	c0-3.554-0.104-7.785-0.209-9.353h4.649c-0.104,1.568-0.209,5.799-0.209,9.353V305.416z"/>
<path fill="#EF68A5" d="M411.485,278.352c10.348,0,18.498,8.308,18.498,18.496c0,10.241-8.15,18.549-18.498,18.549
	c-10.344,0-18.495-8.309-18.495-18.549C392.991,286.66,401.142,278.352,411.485,278.352z M411.485,311.738
	c7.838,0,14.161-6.635,14.161-14.891c0-8.202-6.323-14.836-14.161-14.836s-14.157,6.634-14.157,14.836
	C397.328,305.103,403.647,311.738,411.485,311.738z"/>
<path fill="#EF68A5" d="M447.011,314.769h-4.443c0.104-1.462,0.208-4.806,0.208-7.576v-18.913c0-3.135-0.104-7.263-0.208-10.083
	h0.994c1.566,1.932,2.506,2.978,4.283,4.962l19.331,22.989v-17.815c0-2.979-0.104-7.158-0.158-9.353h4.392
	c-0.104,2.3-0.157,6.479-0.157,9.353v19.487c0,2.195,0,4.545,0.157,7.577h-0.941c-1.307-1.673-2.194-2.718-3.865-4.651
	l-19.696-23.406l-0.106,19.906C446.8,309.963,446.906,313.307,447.011,314.769z"/>
<path fill="#EF68A5" d="M503.379,305.364c0,6.009-4.387,10.188-10.814,10.188c-3.396,0-5.433-0.887-8.15-1.307v-5.954
	c1.308,2.191,4.704,3.865,8.255,3.865c3.867,0,6.166-2.612,6.166-6.271c0-7.732-13.322-7.68-13.322-18.024
	c0-6.113,4.336-9.614,10.344-9.614c2.716,0,4.391,0.731,6.583,0.993v5.643c-0.938-2.299-3.552-3.344-6.583-3.344
	c-3.502,0-6.008,2.09-6.008,5.799C489.849,294.863,503.379,295.02,503.379,305.364z"/>
<path fill="#FFFFFF" d="M536.302,310.749c-3.663,2.77-7.322,3.75-10.277,3.845c-1.964,0-3.569-0.273-3.569-1.789
	c0.087-1.697,2.411-2.5,5.807-3.393c2.504-0.626,5.272-1.348,6.879-2.059c0.896-0.983,2.415-3.217,2.859-4.466
	c0.357-0.984,0.627-2.677-0.896-2.677c-1.604,0-4.551,1.519-7.771,4.018c-3.931,3.04-6.518,5.625-9.918,9.024
	c-0.713,0.714-1.608,1.162-2.59,1.247c-1.788,0.095-1.697-0.442-1.249-1.426c0.806-1.784,2.146-3.752,3.662-5.988
	c0.808-1.159,1.609-2.318,2.59-3.483h-0.087c-1.252,1.07-2.412,2.145-3.218,2.859c-0.539,0.444-0.801,0.539-0.979,0.357
	c-0.182-0.175,0-0.448,0.44-0.893c1.431-1.253,3.664-3.305,5.717-5.009c3.22-4.105,6.791-8.664,10.903-13.394
	c5.097-6.083,15.993-17.245,20.729-20.643c2.412-1.788,5.003-3.571,7.593-3.571c2.324,0,3.039,1.611,2.769,3.214
	c-0.711,4.294-9.289,11.437-18.314,18.939c-5.449,4.473-12.95,9.829-18.227,14.565c-1.516,1.876-5.982,8.219-5.982,8.219l0.088,0.09
	c2.587-2.681,5.72-5.093,8.397-6.881c1.785-1.163,5.269-2.947,7.865-2.591c1.96,0.179,3.032,1.346,2.77,3.396
	C541.932,304.854,539.876,308.064,536.302,310.749z M530.313,312.087c1.522-0.979,2.862-2.139,4.117-3.75
	c-1.075,0.536-4.117,1.338-5.542,1.698c-3.216,0.798-5.093,1.61-5.002,2.77c0.088,0.714,0.979,0.893,2.138,0.801
	C527.816,313.435,529.154,312.805,530.313,312.087z M546.577,284.481c8.579-7.686,16.528-14.561,16.889-18.495
	c0.084-1.159-0.539-1.693-1.519-1.693c-1.523,0-3.935,1.785-5.811,3.573c-3.032,2.951-7.236,7.237-11.885,12.772
	c-6.518,7.777-8.841,10.633-13.665,17.067C539.071,290.293,542.555,288.146,546.577,284.481z"/>
<path fill="#FFFFFF" d="M565.793,304.046c-1.788,1.519-4.917,3.935-7.238,5.723c-3.665,2.769-6.883,4.911-9.563,4.911
	c-1.874,0-2.947-0.983-2.856-2.594c0.088-0.979,0.623-2.233,1.606-3.57c1.881-2.5,4.11-5.003,6.346-7.146
	c-0.626,0.263-2.593,1.691-3.937,2.766c-1.337,1.072-2.23,1.789-3.126,2.591c-0.707,0.625-1.067,0.896-1.341,0.713
	c-0.179-0.174,0-0.536,0.987-1.425c0.98-0.896,4.197-3.577,6.343-5.005c2.324-1.609,3.482-1.967,5.181-1.967
	c1.879,0,2.056,0.27,0.988,1.432c-1.167,1.253-2.866,3.305-4.649,5.541c-1.52,1.873-2.861,3.837-3.308,4.817
	c-0.357,0.72-0.357,1.349-0.089,1.615c0.357,0.356,1.158,0.178,2.055-0.267c1.968-1.074,3.928-2.412,6.696-4.558
	c4.293-3.308,6.791-5.541,9.654-7.771c0.716-0.539,1.249-0.988,2.592-0.988c1.515,0,2.231,0.179,1.252,1.346
	c-1.435,1.873-3.486,4.556-5.271,6.968c-1.52,1.964-5.094,6.612-11.799,15.812c-7.86,10.723-14.56,20.723-15.811,22.869
	c-0.717,1.162-0.717,1.614-0.446,1.791c0.268,0.18,0.716,0,1.339-0.716c0.896-0.981,4.021-5.452,6.521-9.022
	c2.055-2.862,5.451-7.777,10.096-13.76c3.664-4.648,7.595-9.202,11.437-13.045c1.339-1.338,4.29-4.107,5.453-5.182
	c0.267-0.27,0.983-0.894,1.249-0.626c0.179,0.265-0.266,0.716-0.982,1.428c-1.162,1.074-3.038,2.859-5.184,5
	c-3.393,3.487-7.681,8.399-11.26,12.959c-4.195,5.538-7.86,10.631-10.629,14.653c-2.856,4.019-5.363,7.771-7.594,9.826
	c-0.801,0.714-1.697,1.253-2.593,1.158c-0.98-0.084-1.693-0.623-1.693-1.872c0-1.519,1.604-4.289,3.66-7.592
	c3.217-5.094,5.719-8.759,12.062-17.511c4.292-5.898,8.576-11.887,13.936-19.214L565.793,304.046z"/>
<path fill="#FFFFFF" d="M628.504,289.753c0-2.502-1.609-4.022-3.935-4.109c-2.408-0.091-4.646,1.162-5.804,2.321
	c-1.164,1.161-1.344,1.875-1.609,1.788c-0.179-0.088,0.088-0.983,1.07-2.055c1.074-1.25,3.575-3.038,6.611-2.858
	c2.68,0.09,5.004,1.873,5.004,5.096c0,3.301-2.053,6.875-5.356,9.647c-3.486,2.856-8.31,4.819-13.76,4.554
	c-6.524-0.356-10.455-3.22-10.364-8.758c0.178-10.718,15.722-18.937,30.913-18.937c7.416,0,15.188,1.873,19.832,5.986
	c1.071-0.715,3.575-2.233,5.808-3.13c2.412-0.983,5.449-1.784,8.755-1.784c2.416,0,4.109,0.716,5.005,1.339
	c0.623,0.444,0.98,1.163,0.802,1.341c-0.266,0.087-0.266-0.269-1.247-0.897c-0.716-0.444-2.323-0.983-4.56-0.983
	c-2.856,0-5.808,0.808-8.305,1.88c-2.414,1.071-4.56,2.499-5.365,3.213c5.365,5.902,5.185,14.383,0.984,20.639
	c-5.003,7.417-15.991,10.808-25.019,10.808c-4.646,0-9.825-0.261-12.237-0.44c-2.502,0.267-6.343,0.536-8.845,0.536
	c-8.041,0-14.206,0.087-14.115-1.609c0.176-1.695,5.717-1.968,12.953-1.695c3.217,0.083,8.31,0.711,11.975,1.334
	c7.413-2.146,11.88-9.199,17.33-15.63c4.289-5.097,10.456-11.17,14.74-14.029c-4.022-4.109-11.971-6.073-18.491-6.073
	c-14.118,0-26.983,8.754-27.162,18.85c0,3.931,2.146,6.882,6.697,7.147c5.097,0.27,9.385-1.788,12.602-4.645
	c3.125-2.861,5.093-6.254,5.093-8.758V289.753z M626.536,313.966c9.112,0,16.975-3.931,22.694-11.796
	c4.198-5.895,5.002-13.399,1.521-17.867c-3.128,2.948-7.062,9.472-10.992,14.471c-6.967,8.404-13.045,12.059-20.724,14.387
	C620.284,313.435,624.392,313.966,626.536,313.966z"/>
<path fill="#FFFFFF" d="M660.148,306.644c-0.624,0.535-0.984,0.71-1.158,0.535c-0.18-0.273,0.269-0.718,0.621-1.074
	c0.628-0.628,1.877-1.607,2.772-2.231c1.163-0.811,2.411-1.613,4.288-2.596c2.592-1.341,5.363-2.32,7.415-2.413
	c0.626,0,1.344,0,1.344,0.362c0,0.175-0.27,0.175-0.987,0.531c-2.146,0.987-3.927,2.502-6.432,4.915
	c-2.589,2.595-5.004,6.077-5.184,7.866c-0.09,0.896,0.27,1.519,1.254,1.519c1.967,0,5.538-2.411,8.307-5.453
	c0.096-0.896,0.447-2.233,1.61-3.749c0.983-1.341,2.233-2.058,2.856-2.324c0.272-0.626,0.272-1.614,0.272-2.055
	c0-0.983-0.359-1.249-0.095-1.432c0.357-0.179,0.896,0.183,1.254,0.54c0.714,0.71,1.249,1.788,1.07,3.125
	c-0.269,2.146-2.324,4.733-5.093,7.24c0.357,0.178,1.345,0.087,1.697,0c0.807-0.179,1.789-0.627,3.039-1.522
	c1.159-0.802,1.876-1.426,2.856-2.321c0.807-0.714,1.253-1.165,1.523-0.896c0.266,0.268-0.271,0.807-1.159,1.609
	c-0.809,0.71-1.701,1.519-2.864,2.324c-1.428,0.983-2.502,1.428-3.396,1.606c-0.801,0.18-1.875,0.18-2.414-0.179
	c-2.321,1.786-6.518,4.38-10.181,4.38c-2.768,0-4.466-1.345-4.377-3.936c0.09-1.784,1.158-3.93,2.858-5.715l-0.091-0.091
	C661.135,305.747,660.778,306.104,660.148,306.644z"/>
<path fill="#FFFFFF" d="M689.893,303.157c-1.343,1.159-2.687,2.408-3.666,3.304c-0.539,0.444-0.802,0.539-0.98,0.267
	c-0.095-0.267,0.179-0.537,0.441-0.802c0.361-0.361,3.754-3.305,6.525-5.633c2.324-2.943,6.699-8.397,10.542-12.77
	c3.035-3.581,6.696-7.507,10.632-11.081c1.07-0.98,2.056-1.519,3.214-1.519c0.896,0,1.34,0.356,1.34,0.623
	c-1.697,1.701-9.56,10.368-13.312,14.831c-5.985,7.239-12.415,15.549-14.295,19.658c-0.265,0.627-0.803,1.877-0.179,2.413
	c0.627,0.447,1.967-0.092,2.769-0.536c1.166-0.623,2.415-1.52,3.665-2.5c1.606-1.249,2.769-2.233,3.933-3.308
	c0.359-0.357,1.069-0.984,1.34-0.714c0.179,0.175-0.092,0.536-0.628,1.071c-1.067,1.067-3.3,3.039-5.445,4.646
	c-1.789,1.341-5.095,3.573-8.041,3.573c-1.789,0-2.864-0.806-2.772-2.412c0.087-2.143,2.323-5.625,5.001-9.024L689.893,303.157z"/>
<path fill="#FFFFFF" d="M708.354,303.157c-1.341,1.159-2.681,2.408-3.664,3.304c-0.537,0.444-0.802,0.539-0.981,0.267
	c-0.087-0.267,0.18-0.537,0.444-0.802c0.358-0.361,3.757-3.305,6.526-5.633c2.323-2.943,6.7-8.397,10.54-12.77
	c3.043-3.581,6.703-7.507,10.633-11.081c1.075-0.98,2.055-1.519,3.217-1.519c0.89,0,1.339,0.356,1.339,0.623
	c-1.696,1.701-9.56,10.368-13.309,14.831c-5.989,7.239-12.42,15.549-14.298,19.658c-0.268,0.627-0.808,1.877-0.178,2.413
	c0.623,0.447,1.964-0.092,2.77-0.536c1.162-0.623,2.412-1.52,3.666-2.5c1.603-1.249,2.768-2.233,3.926-3.308
	c0.36-0.357,1.072-0.984,1.341-0.714c0.179,0.175-0.09,0.536-0.622,1.071c-1.075,1.067-3.306,3.039-5.45,4.646
	c-1.79,1.341-5.093,3.573-8.041,3.573c-1.789,0-2.86-0.806-2.769-2.412c0.083-2.143,2.321-5.625,5.001-9.024L708.354,303.157z"/>
<path fill="#FFFFFF" d="M741.921,304.046c-1.788,1.519-4.914,3.935-7.235,5.723c-3.665,2.769-6.882,4.911-9.559,4.911
	c-1.882,0-2.948-0.983-2.864-2.594c0.093-0.979,0.626-2.233,1.613-3.57c1.872-2.5,4.106-5.003,6.339-7.146
	c-0.623,0.263-2.59,1.691-3.932,2.766c-1.336,1.072-2.229,1.789-3.125,2.591c-0.714,0.625-1.073,0.896-1.341,0.713
	c-0.178-0.174,0-0.536,0.984-1.425c0.979-0.896,4.2-3.577,6.345-5.005c2.321-1.609,3.48-1.967,5.179-1.967
	c1.879,0,2.058,0.27,0.983,1.432c-1.162,1.253-2.859,3.305-4.645,5.541c-1.518,1.873-2.86,3.837-3.305,4.817
	c-0.357,0.72-0.357,1.349-0.091,1.615c0.356,0.356,1.16,0.178,2.054-0.267c1.968-1.074,3.931-2.412,6.701-4.558
	c4.288-3.308,6.791-5.541,9.649-7.771c0.713-0.539,1.251-0.988,2.595-0.988c1.516,0,2.229,0.179,1.245,1.346
	c-1.43,1.873-3.482,4.556-5.269,6.968c-1.519,1.964-5.092,6.612-11.795,15.812c-7.863,10.723-14.562,20.723-15.816,22.869
	c-0.711,1.162-0.711,1.614-0.443,1.791c0.266,0.18,0.717,0,1.341-0.716c0.895-0.981,4.022-5.452,6.523-9.022
	c2.052-2.862,5.448-7.777,10.093-13.76c3.664-4.648,7.593-9.202,11.436-13.045c1.342-1.338,4.288-4.107,5.453-5.182
	c0.267-0.27,0.981-0.894,1.252-0.626c0.177,0.265-0.271,0.716-0.985,1.428c-1.159,1.074-3.034,2.859-5.181,5
	c-3.396,3.487-7.685,8.399-11.257,12.959c-4.2,5.538-7.862,10.631-10.635,14.653c-2.855,4.019-5.359,7.771-7.597,9.826
	c-0.801,0.714-1.693,1.253-2.59,1.158c-0.979-0.084-1.697-0.623-1.697-1.872c0-1.519,1.614-4.289,3.665-7.592
	c3.22-5.094,5.719-8.759,12.062-17.511c4.289-5.898,8.573-11.887,13.937-19.214L741.921,304.046z"/>
</svg>
