<?xml version="1.0" encoding="utf-8"?>
<!-- Generator: Adobe Illustrator 16.0.4, SVG Export Plug-In . SVG Version: 6.00 Build 0)  -->
<!DOCTYPE svg PUBLIC "-//W3C//DTD SVG 1.1//EN" "http://www.w3.org/Graphics/SVG/1.1/DTD/svg11.dtd">
<svg version="1.1" id="Layer_1" xmlns="http://www.w3.org/2000/svg" xmlns:xlink="http://www.w3.org/1999/xlink" x="0px" y="0px"
	 width="976.514px" height="142.424px" viewBox="0 0 976.514 142.424" enable-background="new 0 0 976.514 142.424"
	 xml:space="preserve">
<path fill="#FFFFFF" d="M29.515,51.336h20.159v-5.819c0-3.949-0.069-9.49-0.277-12.401h10.599c-0.138,3.049-0.346,8.59-0.346,12.401
	v25.078c0,3.604,0.208,8.037,0.346,9.976H49.397c0.138-1.938,0.277-6.372,0.277-10.046V59.581H29.515v11.014
	c0,3.604,0.07,8.037,0.209,9.976H19.262c0.14-1.938,0.278-6.372,0.278-10.046V45.517c0-4.919-0.139-10.531-0.278-12.401h10.462
	c-0.139,1.87-0.209,7.481-0.209,12.401V51.336z"/>
<path fill="#FFFFFF" d="M101.23,80.57c-0.554-1.595-1.455-3.811-2.354-5.888l-2.149-5.129H80.24l-2.148,4.921
	c-1.04,2.425-1.731,4.226-2.354,6.096h-10.6c1.733-3.05,3.603-6.513,5.334-10.531l17.181-37.755h2.771l17.665,37.755
	c1.87,3.95,3.948,7.69,5.611,10.531H101.23z M88.484,49.604l-4.918,11.846h9.836L88.484,49.604z"/>
<path fill="#FFFFFF" d="M129.419,68.169c0,4.712,0.138,10.253,0.277,12.401h-10.53c0.139-2.147,0.277-7.688,0.277-12.401V45.517
	c0-4.712-0.138-10.322-0.277-12.401h10.53c-0.139,2.079-0.277,7.689-0.277,12.401V68.169z"/>
<path fill="#FFFFFF" d="M149.921,68.308c0,4.71,0.071,10.115,0.278,12.262h-10.6c0.209-2.147,0.347-7.552,0.347-12.262V45.517
	c0-4.712-0.138-10.322-0.347-12.401h14.203c11.36,0,17.596,6.236,17.596,14.825c0,7.481-4.366,11.293-9.352,12.885
	c5.402,6.098,10.598,14.271,16.555,19.744H165.51c-3.049-3.74-9.076-12.262-11.986-18.151c-0.486,0.069-0.901,0.069-1.315,0.069
	h-2.288V68.308z M149.921,55.353h3.812c4.501,0,7.62-2.979,7.62-7.134c0-3.74-2.702-7.205-8.037-7.205h-3.396V55.353z"/>
<path fill="#EF68A5" d="M193.008,37.757V52.86h5.47c4.711,0,8.66-0.071,10.808-0.209v5.127c-2.148-0.14-6.097-0.208-10.808-0.208
	h-5.47v18.288h6.095c4.78,0,9.627-0.068,11.708-0.207v5.125c-2.081-0.139-6.928-0.206-11.708-0.206h-11.984
	c0.138-3.811,0.277-9.284,0.277-12.401V45.448c0-4.781-0.139-10.252-0.277-12.332h11.429c4.78,0,9.56-0.139,11.708-0.277v5.196
	c-2.148-0.208-6.928-0.278-11.708-0.278H193.008z"/>
<path fill="#EF68A5" d="M241.706,61.312l-7.066,11.984c-1.939,3.395-2.98,5.265-3.951,7.274h-6.856
	c2.077-2.771,4.362-6.165,6.787-10.046l8.314-13.716l-8.107-13.301c-2.356-3.946-4.848-7.758-6.857-10.391h7.272
	c1.11,2.217,2.426,4.641,4.434,7.898l6.375,10.807l6.373-10.875c1.801-3.118,3.185-5.75,4.363-7.829h6.791
	c-2.078,2.702-4.572,6.583-6.791,10.184l-7.964,13.024l8.172,13.508c2.494,4.019,5.127,7.968,7.205,10.738h-7.275
	c-1.106-1.938-2.631-4.78-4.709-8.175L241.706,61.312z"/>
<path fill="#EF68A5" d="M298.713,33.116c4.781,0,9.837-0.069,11.985-0.208v5.127c-2.148-0.139-7.205-0.278-11.985-0.278h-4.85
	c-0.068,2.563-0.068,6.097-0.068,8.938v21.475c0,4.712,0.068,10.253,0.275,12.401h-6.164c0.139-2.147,0.207-7.688,0.207-12.401
	V46.695c0-2.84-0.068-6.374-0.207-8.938h-4.779c-4.713,0-9.699,0.14-11.848,0.278v-5.127c2.148,0.138,7.134,0.208,11.848,0.208
	H298.713z"/>
<path fill="#EF68A5" d="M331.197,37.757V52.86h5.472c4.712,0,8.661-0.071,10.808-0.209v5.127c-2.146-0.14-6.096-0.208-10.808-0.208
	h-5.472v18.288h6.096c4.783,0,9.63-0.068,11.707-0.207v5.125c-2.077-0.139-6.924-0.206-11.707-0.206h-11.982
	c0.136-3.811,0.274-9.284,0.274-12.401V45.448c0-4.781-0.138-10.252-0.274-12.332h11.427c4.782,0,9.562-0.139,11.709-0.277v5.196
	c-2.147-0.208-6.927-0.278-11.709-0.278H331.197z"/>
<path fill="#EF68A5" d="M371.255,80.57h-5.89c0.139-1.938,0.277-6.372,0.277-10.046V45.448c0-4.157-0.139-9.63-0.277-13.37h1.316
	c2.079,2.562,3.322,3.949,5.681,6.58l25.633,30.481V45.517c0-3.949-0.139-9.49-0.212-12.401h5.822
	c-0.139,3.049-0.207,8.59-0.207,12.401v25.839c0,2.91,0,6.026,0.207,10.046h-1.249c-1.731-2.218-2.907-3.603-5.122-6.167
	l-26.118-31.035l-0.141,26.394C370.976,74.198,371.116,78.632,371.255,80.57z"/>
<path fill="#EF68A5" d="M445.995,68.1c0,7.967-5.813,13.508-14.337,13.508c-4.505,0-7.205-1.176-10.808-1.732v-7.895
	c1.732,2.906,6.237,5.125,10.946,5.125c5.127,0,8.173-3.464,8.173-8.314c0-10.253-17.664-10.184-17.664-23.898
	c0-8.105,5.751-12.747,13.715-12.747c3.604,0,5.821,0.969,8.731,1.316v7.482c-1.246-3.048-4.709-4.434-8.731-4.434
	c-4.642,0-7.964,2.771-7.964,7.689C428.057,54.177,445.995,54.384,445.995,68.1z"/>
<path fill="#EF68A5" d="M469.245,68.169c0,4.712,0.139,10.253,0.277,12.401h-6.164c0.139-2.147,0.277-7.688,0.277-12.401V45.517
	c0-4.712-0.139-10.322-0.277-12.401h6.164c-0.139,2.079-0.277,7.689-0.277,12.401V68.169z"/>
<path fill="#EF68A5" d="M511.155,32.284c13.72,0,24.527,11.016,24.527,24.524c0,13.579-10.808,24.594-24.527,24.594
	c-13.715,0-24.522-11.016-24.522-24.594C486.633,43.3,497.44,32.284,511.155,32.284z M511.155,76.552
	c10.392,0,18.776-8.797,18.776-19.744c0-10.876-8.385-19.672-18.776-19.672c-10.393,0-18.771,8.796-18.771,19.672
	C492.384,67.754,500.763,76.552,511.155,76.552z"/>
<path fill="#EF68A5" d="M558.259,80.57h-5.892c0.139-1.938,0.276-6.372,0.276-10.046V45.448c0-4.157-0.138-9.63-0.276-13.37h1.318
	c2.077,2.562,3.322,3.949,5.679,6.58l25.632,30.481V45.517c0-3.949-0.138-9.49-0.209-12.401h5.822
	c-0.139,3.049-0.209,8.59-0.209,12.401v25.839c0,2.91,0,6.026,0.209,10.046h-1.248c-1.732-2.218-2.91-3.603-5.125-6.167
	l-26.115-31.035l-0.142,26.394C557.979,74.198,558.121,78.632,558.259,80.57z"/>
<path fill="#EF68A5" d="M632.999,68.1c0,7.967-5.816,13.508-14.339,13.508c-4.503,0-7.203-1.176-10.808-1.732v-7.895
	c1.734,2.906,6.237,5.125,10.946,5.125c5.127,0,8.175-3.464,8.175-8.314c0-10.253-17.664-10.184-17.664-23.898
	c0-8.105,5.749-12.747,13.715-12.747c3.602,0,5.822,0.969,8.729,1.316v7.482c-1.244-3.048-4.71-4.434-8.729-4.434
	c-4.644,0-7.966,2.771-7.966,7.689C615.059,54.177,632.999,54.384,632.999,68.1z"/>
<path fill="#FFFFFF" d="M676.652,75.241c-4.857,3.672-9.709,4.972-13.627,5.097c-2.604,0-4.732-0.362-4.732-2.371
	c0.115-2.251,3.196-3.315,7.698-4.499c3.32-0.83,6.991-1.787,9.121-2.729c1.188-1.303,3.202-4.265,3.791-5.921
	c0.475-1.304,0.832-3.55-1.187-3.55c-2.126,0-6.034,2.014-10.305,5.327c-5.212,4.029-8.642,7.459-13.15,11.965
	c-0.945,0.946-2.133,1.541-3.434,1.653c-2.371,0.125-2.251-0.587-1.657-1.891c1.068-2.366,2.847-4.975,4.856-7.941
	c1.07-1.536,2.134-3.073,3.434-4.617h-0.115c-1.659,1.419-3.198,2.844-4.267,3.791c-0.714,0.589-1.062,0.715-1.299,0.474
	c-0.24-0.232,0-0.594,0.585-1.184c1.896-1.662,4.858-4.382,7.58-6.642c4.269-5.444,9.004-11.488,14.456-17.759
	c6.758-8.066,21.206-22.865,27.486-27.371c3.198-2.371,6.633-4.735,10.067-4.735c3.082,0,4.029,2.136,3.671,4.262
	c-0.942,5.693-12.317,15.164-24.283,25.112c-7.226,5.93-17.172,13.032-24.168,19.312c-2.009,2.488-7.932,10.898-7.932,10.898
	l0.116,0.12c3.43-3.556,7.584-6.753,11.135-9.124c2.367-1.542,6.985-3.908,10.429-3.436c2.599,0.237,4.02,1.784,3.672,4.502
	C684.117,67.425,681.392,71.681,676.652,75.241z M668.712,77.015c2.02-1.299,3.796-2.836,5.459-4.972
	c-1.426,0.71-5.459,1.773-7.348,2.251c-4.265,1.059-6.753,2.135-6.633,3.673c0.117,0.946,1.299,1.183,2.835,1.062
	C665.401,78.802,667.175,77.967,668.712,77.015z M690.276,40.412c11.375-10.191,21.916-19.306,22.394-24.523
	c0.111-1.537-0.715-2.245-2.014-2.245c-2.02,0-5.217,2.367-7.705,4.737c-4.02,3.913-9.595,9.596-15.758,16.936
	c-8.642,10.312-11.723,14.099-18.119,22.63C680.324,48.118,684.942,45.271,690.276,40.412z"/>
<path fill="#FFFFFF" d="M715.756,66.354c-2.371,2.014-6.521,5.218-9.598,7.588c-4.86,3.671-9.126,6.512-12.681,6.512
	c-2.484,0-3.908-1.304-3.788-3.438c0.117-1.299,0.827-2.961,2.131-4.734c2.493-3.315,5.449-6.633,8.414-9.474
	c-0.83,0.349-3.438,2.243-5.221,3.667c-1.771,1.422-2.956,2.372-4.144,3.436c-0.938,0.829-1.416,1.187-1.778,0.946
	c-0.237-0.232,0-0.711,1.31-1.89c1.3-1.188,5.564-4.743,8.409-6.637c3.082-2.134,4.617-2.608,6.869-2.608
	c2.492,0,2.726,0.357,1.311,1.899c-1.548,1.662-3.8,4.382-6.165,7.346c-2.015,2.483-3.793,5.088-4.386,6.387
	c-0.474,0.953-0.474,1.787-0.117,2.141c0.474,0.474,1.536,0.236,2.725-0.354c2.608-1.424,5.208-3.198,8.879-6.043
	c5.691-4.385,9.004-7.346,12.8-10.304c0.95-0.715,1.657-1.31,3.437-1.31c2.009,0,2.96,0.237,1.661,1.784
	c-1.903,2.483-4.623,6.042-6.989,9.24c-2.015,2.604-6.753,8.768-15.644,20.965c-10.423,14.217-19.306,27.477-20.964,30.322
	c-0.95,1.541-0.95,2.141-0.592,2.375c0.354,0.238,0.949,0,1.775-0.949c1.188-1.301,5.332-7.229,8.647-11.963
	c2.724-3.795,7.227-10.312,13.385-18.244c4.859-6.164,10.071-12.202,15.164-17.297c1.776-1.774,5.689-5.446,7.23-6.871
	c0.354-0.358,1.305-1.185,1.657-0.83c0.236,0.352-0.353,0.95-1.303,1.894c-1.541,1.424-4.029,3.791-6.874,6.631
	c-4.498,4.623-10.184,11.136-14.929,17.183c-5.563,7.343-10.423,14.096-14.094,19.429c-3.787,5.328-7.111,10.303-10.068,13.028
	c-1.062,0.946-2.251,1.661-3.438,1.536c-1.3-0.111-2.245-0.826-2.245-2.482c0-2.014,2.128-5.688,4.854-10.066
	c4.265-6.754,7.583-11.613,15.994-23.218c5.69-7.821,11.371-15.761,18.478-25.476L715.756,66.354z"/>
<path fill="#FFFFFF" d="M798.905,47.402c0-3.318-2.134-5.333-5.217-5.448c-3.193-0.121-6.159,1.541-7.695,3.078
	c-1.544,1.539-1.781,2.486-2.134,2.371c-0.237-0.117,0.116-1.304,1.419-2.725c1.425-1.657,4.74-4.028,8.767-3.791
	c3.553,0.12,6.635,2.483,6.635,6.757c0,4.376-2.722,9.116-7.103,12.792c-4.623,3.787-11.019,6.391-18.244,6.038
	c-8.651-0.472-13.863-4.27-13.743-11.612c0.236-14.212,20.846-25.109,40.989-25.109c9.833,0,20.137,2.483,26.296,7.937
	c1.42-0.948,4.739-2.961,7.699-4.151c3.199-1.303,7.227-2.365,11.609-2.365c3.203,0,5.448,0.949,6.636,1.776
	c0.826,0.589,1.3,1.541,1.063,1.778c-0.353,0.115-0.353-0.357-1.653-1.189c-0.95-0.589-3.081-1.303-6.046-1.303
	c-3.788,0-7.7,1.072-11.012,2.493c-3.201,1.42-6.046,3.313-7.114,4.26c7.114,7.825,6.874,19.071,1.306,27.366
	c-6.634,9.835-21.203,14.331-33.173,14.331c-6.159,0-13.027-0.347-16.226-0.584c-3.317,0.353-8.41,0.71-11.728,0.71
	c-10.661,0-18.836,0.116-18.716-2.134c0.233-2.248,7.58-2.609,17.175-2.248c4.265,0.111,11.018,0.943,15.878,1.77
	c9.829-2.846,15.751-12.197,22.979-20.724c5.687-6.758,13.863-14.811,19.544-18.602c-5.333-5.449-15.872-8.053-24.518-8.053
	c-18.72,0-35.778,11.607-36.016,24.993c0,5.212,2.847,9.125,8.881,9.477c6.757,0.357,12.443-2.371,16.708-6.159
	c4.144-3.793,6.753-8.292,6.753-11.613V47.402z M796.296,79.506c12.083,0,22.507-5.212,30.092-15.641
	c5.565-7.815,6.632-17.767,2.017-23.69c-4.147,3.909-9.364,12.56-14.574,19.188c-9.238,11.144-17.297,15.989-27.479,19.075
	C788.007,78.802,793.453,79.506,796.296,79.506z"/>
<path fill="#FFFFFF" d="M840.863,69.797c-0.827,0.71-1.305,0.941-1.536,0.71c-0.237-0.363,0.356-0.952,0.824-1.424
	c0.833-0.833,2.488-2.131,3.676-2.958c1.542-1.076,3.197-2.139,5.687-3.443c3.436-1.777,7.11-3.076,9.831-3.199
	c0.83,0,1.781,0,1.781,0.479c0,0.232-0.356,0.232-1.309,0.705c-2.847,1.31-5.207,3.318-8.527,6.517
	c-3.433,3.44-6.636,8.058-6.873,10.429c-0.12,1.189,0.356,2.014,1.662,2.014c2.607,0,7.343-3.197,11.015-7.23
	c0.126-1.188,0.593-2.96,2.135-4.97c1.304-1.778,2.961-2.729,3.787-3.082c0.361-0.831,0.361-2.14,0.361-2.724
	c0-1.304-0.477-1.657-0.125-1.899c0.473-0.237,1.188,0.242,1.662,0.715c0.946,0.942,1.656,2.371,1.419,4.145
	c-0.356,2.846-3.081,6.276-6.753,9.599c0.475,0.236,1.783,0.115,2.251,0c1.069-0.237,2.372-0.831,4.029-2.019
	c1.537-1.064,2.487-1.891,3.788-3.078c1.068-0.947,1.661-1.545,2.02-1.188c0.352,0.355-0.358,1.07-1.537,2.134
	c-1.072,0.942-2.256,2.014-3.798,3.082c-1.893,1.305-3.317,1.894-4.502,2.131c-1.062,0.237-2.486,0.237-3.201-0.237
	c-3.078,2.368-8.642,5.807-13.498,5.807c-3.671,0-5.922-1.782-5.805-5.218c0.12-2.365,1.536-5.211,3.791-7.578l-0.12-0.12
	C842.171,68.608,841.698,69.083,840.863,69.797z"/>
<path fill="#FFFFFF" d="M880.302,65.174c-1.78,1.537-3.562,3.193-4.86,4.38c-0.715,0.589-1.063,0.715-1.301,0.354
	c-0.125-0.354,0.237-0.711,0.586-1.064c0.479-0.478,4.977-4.382,8.651-7.468c3.082-3.903,8.883-11.134,13.979-16.932
	c4.024-4.748,8.879-9.955,14.097-14.693c1.42-1.299,2.726-2.014,4.262-2.014c1.188,0,1.776,0.473,1.776,0.826
	c-2.251,2.255-12.675,13.747-17.651,19.665c-7.936,9.598-16.462,20.616-18.954,26.065c-0.351,0.832-1.064,2.488-0.237,3.199
	c0.831,0.594,2.608-0.121,3.671-0.711c1.547-0.826,3.202-2.014,4.859-3.314c2.131-1.656,3.672-2.961,5.215-4.385
	c0.477-0.474,1.418-1.305,1.776-0.947c0.237,0.232-0.121,0.71-0.832,1.419c-1.415,1.416-4.376,4.03-7.221,6.161
	c-2.372,1.777-6.755,4.737-10.661,4.737c-2.372,0-3.798-1.067-3.677-3.198c0.116-2.84,3.081-7.458,6.631-11.965L880.302,65.174z"/>
<path fill="#FFFFFF" d="M904.78,65.174c-1.778,1.537-3.555,3.193-4.858,4.38c-0.712,0.589-1.063,0.715-1.302,0.354
	c-0.115-0.354,0.238-0.711,0.59-1.064c0.475-0.478,4.98-4.382,8.652-7.468c3.081-3.903,8.885-11.134,13.976-16.932
	c4.034-4.748,8.888-9.955,14.099-14.693c1.426-1.299,2.725-2.014,4.266-2.014c1.179,0,1.774,0.473,1.774,0.826
	c-2.249,2.255-12.675,13.747-17.646,19.665c-7.941,9.598-16.468,20.616-18.957,26.065c-0.355,0.832-1.071,2.488-0.236,3.199
	c0.826,0.594,2.604-0.121,3.673-0.711c1.541-0.826,3.198-2.014,4.86-3.314c2.125-1.656,3.67-2.961,5.206-4.385
	c0.478-0.474,1.421-1.305,1.777-0.947c0.236,0.232-0.119,0.71-0.825,1.419c-1.426,1.416-4.383,4.03-7.227,6.161
	c-2.373,1.777-6.753,4.737-10.661,4.737c-2.372,0-3.793-1.067-3.672-3.198c0.11-2.84,3.078-7.458,6.632-11.965L904.78,65.174z"/>
<path fill="#FFFFFF" d="M949.287,66.354c-2.371,2.014-6.516,5.218-9.594,7.588c-4.859,3.671-9.124,6.512-12.674,6.512
	c-2.495,0-3.909-1.304-3.797-3.438c0.123-1.299,0.829-2.961,2.139-4.734c2.482-3.315,5.445-6.633,8.405-9.474
	c-0.826,0.349-3.435,2.243-5.213,3.667c-1.771,1.422-2.957,2.372-4.144,3.436c-0.947,0.829-1.424,1.187-1.778,0.946
	c-0.235-0.232,0-0.711,1.306-1.89c1.299-1.188,5.569-4.743,8.412-6.637c3.078-2.134,4.615-2.608,6.866-2.608
	c2.491,0,2.729,0.357,1.304,1.899c-1.54,1.662-3.791,4.382-6.158,7.346c-2.012,2.483-3.792,5.088-4.381,6.387
	c-0.474,0.953-0.474,1.787-0.121,2.141c0.473,0.474,1.539,0.236,2.724-0.354c2.608-1.424,5.211-3.198,8.885-6.043
	c5.686-4.385,9.004-7.346,12.795-10.304c0.944-0.715,1.658-1.31,3.439-1.31c2.01,0,2.956,0.237,1.651,1.784
	c-1.896,2.483-4.617,6.042-6.985,9.24c-2.014,2.604-6.752,8.768-15.64,20.965c-10.426,14.217-19.309,27.477-20.971,30.322
	c-0.942,1.541-0.942,2.141-0.589,2.375c0.354,0.238,0.951,0,1.778-0.949c1.187-1.301,5.333-7.229,8.649-11.963
	c2.721-3.795,7.224-10.312,13.383-18.244c4.858-6.164,10.067-12.202,15.163-17.297c1.778-1.774,5.686-5.446,7.229-6.871
	c0.354-0.358,1.302-1.185,1.66-0.83c0.234,0.352-0.358,0.95-1.307,1.894c-1.537,1.424-4.023,3.791-6.869,6.631
	c-4.502,4.623-10.188,11.136-14.926,17.183c-5.569,7.343-10.424,14.096-14.101,19.429c-3.786,5.328-7.106,10.303-10.072,13.028
	c-1.062,0.946-2.246,1.661-3.434,1.536c-1.298-0.111-2.251-0.826-2.251-2.482c0-2.014,2.14-5.688,4.859-10.066
	c4.27-6.754,7.583-11.613,15.993-23.218c5.687-7.821,11.367-15.761,18.479-25.476L949.287,66.354z"/>
</svg>
