<?xml version="1.0" encoding="utf-8"?>
<!-- Generator: Adobe Illustrator 16.0.4, SVG Export Plug-In . SVG Version: 6.00 Build 0)  -->
<!DOCTYPE svg PUBLIC "-//W3C//DTD SVG 1.1//EN" "http://www.w3.org/Graphics/SVG/1.1/DTD/svg11.dtd">
<svg version="1.1" id="Layer_1" xmlns="http://www.w3.org/2000/svg" xmlns:xlink="http://www.w3.org/1999/xlink" x="0px" y="0px"
	 width="600px" height="600px" viewBox="0 0 600 600" enable-background="new 0 0 600 600" xml:space="preserve">
<path fill-rule="evenodd" clip-rule="evenodd" fill="#E45195" d="M276.744,165.346c84.264,84.265-87.323,142.867-138.622,168.691
	c-51.299,25.823-108.356,67.081-104.66,99.837c2.569,22.764,44.149,43.464,75.739,58.525c36.899,17.594,105.224,30.49,65.411,75.739
	c-2.093,2.38-12.821,13.586-20.656,21.207h215.202c9.72-12.924,14.134-28.372,8.573-48.749
	c-21.019-76.959-127.954-103.854-185.906-127.379c-43.033-14.345,333.366-83.195,367.218-220.331
	c16.638-49.919,4.639-122.144-48.198-148.035c-29.746-14.578-73.977-23.527-116.257-33.879H52.758
	C89.932,66.523,218.385,107.103,276.744,165.346z"/>
</svg>
