<?xml version="1.0" encoding="utf-8"?>
<!-- Generator: Adobe Illustrator 16.0.4, SVG Export Plug-In . SVG Version: 6.00 Build 0)  -->
<!DOCTYPE svg PUBLIC "-//W3C//DTD SVG 1.1//EN" "http://www.w3.org/Graphics/SVG/1.1/DTD/svg11.dtd">
<svg version="1.1" id="Layer_1" xmlns="http://www.w3.org/2000/svg" xmlns:xlink="http://www.w3.org/1999/xlink" x="0px" y="0px"
	 width="1024px" height="768px" viewBox="0 0 1024 768" enable-background="new 0 0 1024 768" xml:space="preserve">
<path fill-rule="evenodd" clip-rule="evenodd" fill="#E45095" d="M449,446c24.477,24.477-25.365,41.499-40.266,49
	s-31.475,19.485-30.401,29c0.746,6.612,12.824,12.625,22,17c10.718,5.11,30.564,8.856,19,22c-0.608,0.691-3.724,3.946-6,6.16h62.511
	c2.823-3.754,4.105-8.241,2.489-14.16c-6.104-22.354-37.167-30.167-54-37c-12.5-4.167,96.833-24.166,106.667-64
	c4.833-14.5,1.348-35.479-14-43c-8.641-4.234-21.488-6.834-33.77-9.841h-99.292C394.736,417.295,432.048,429.082,449,446z"/>
</svg>
